<svg width="11" height="21" viewBox="0 0 11 21" fill="none" xmlns="http://www.w3.org/2000/svg">
<path d="M0.865365 20.4653C0.117639 20.1411 -0.223178 19.1818 0.156107 18.469C0.241694 18.3081 1.77918 16.7215 3.83686 14.6706C6.21319 12.3022 7.41313 11.058 7.50022 10.8722C7.57148 10.7203 7.62979 10.4561 7.62979 10.2852C7.62979 10.1143 7.57148 9.85014 7.50022 9.6982C7.41309 9.51244 6.21319 8.26829 3.83686 5.89983C1.77912 3.84892 0.241674 2.26231 0.156107 2.10146C-0.129247 1.56516 0.0079497 0.784465 0.461979 0.360981C0.856139 -0.00668028 1.56641 -0.109706 2.07345 0.127257C2.26076 0.214799 3.54114 1.45399 6.04993 3.9759C9.41839 7.36198 9.77302 7.74002 10.0056 8.19264C10.6998 9.54369 10.6998 11.0268 10.0056 12.3778C9.77306 12.8305 9.41842 13.2085 6.04993 16.5946C3.54114 19.1165 2.26075 20.3556 2.07345 20.4432C1.73975 20.5992 1.19693 20.6091 0.865365 20.4653Z" fill="#E31E59"/>
</svg>
