<svg width="11" height="21" viewBox="0 0 11 21" fill="none" xmlns="http://www.w3.org/2000/svg">
<path d="M9.66088 0.101682C10.4086 0.425925 10.7494 1.38526 10.3701 2.09804C10.2846 2.25889 8.74706 3.84549 6.68938 5.89641C4.31305 8.26486 3.11311 9.509 3.02603 9.69478C2.95476 9.84671 2.89645 10.1109 2.89645 10.2818C2.89645 10.4527 2.95476 10.7169 3.02603 10.8688C3.11316 11.0546 4.31305 12.2987 6.68938 14.6672C8.74713 16.7181 10.2846 18.3047 10.3701 18.4656C10.6555 19.0019 10.5183 19.7826 10.0643 20.206C9.67011 20.5737 8.95984 20.6767 8.45279 20.4398C8.26549 20.3522 6.9851 19.113 4.47631 16.5911C1.10785 13.205 0.753222 12.827 0.520624 12.3744C-0.17358 11.0233 -0.17358 9.54024 0.520624 8.18919C0.753187 7.73656 1.10782 7.35852 4.47631 3.97245C6.9851 1.45054 8.2655 0.211373 8.45279 0.123803C8.78649 -0.0321646 9.32932 -0.0420944 9.66088 0.101682Z" fill="#E31E59"/>
</svg>
